<?xml version="1.0" encoding="UTF-8"?>
<svg version="1.1" xmlns="http://www.w3.org/2000/svg" width="512" height="512">
<path d="M0 0 C10.13960877 9.22939973 19.80605824 18.93887633 29.508425 28.62322354 C31.02574712 30.13758314 32.5436411 31.65136737 34.06169701 33.16499138 C38.83252013 37.92221188 43.60139123 42.6813761 48.36736375 47.44345623 C53.83176487 52.90336648 59.30267137 58.3566469 64.77924997 63.80434185 C69.04223146 68.04563129 73.29935712 72.29274165 77.55217284 76.5442242 C80.07994533 79.07095589 82.61001537 81.59527186 85.14626503 84.11349678 C87.97310731 86.92062776 90.78768958 89.73975958 93.60145569 92.55999756 C94.4270549 93.37638199 95.25265411 94.19276642 96.10327148 95.03388977 C114.83504414 113.90030427 124.05531311 137.3748189 124.05531311 163.79876709 C123.87552789 175.63701083 121.16985624 185.72895547 116.05531311 196.37030029 C115.76527405 196.97978516 115.47523499 197.58927002 115.17640686 198.21722412 C109.73620452 208.74216104 100.8276603 217.26661488 92.51123047 225.52989197 C91.50896006 226.533037 90.50713029 227.53662244 89.50569731 228.54060346 C86.7827101 231.26801784 84.05360297 233.98923222 81.32336199 236.70938265 C78.36892182 239.65512306 75.42032849 242.6067064 72.47099304 245.55755615 C67.37026671 250.65932723 62.26591409 255.75744628 57.15902519 260.85304832 C49.77547986 268.22028579 42.39751436 275.59309076 35.02086515 282.96723238 C23.05033951 294.93338919 11.07536163 306.89508005 -0.90245056 318.85394287 C-12.53240837 330.46552083 -24.16024748 342.07921375 -35.78526306 353.69573975 C-36.50276448 354.41271572 -37.22026591 355.1296917 -37.9595098 355.86839422 C-41.55926972 359.46554392 -45.15898824 363.06273506 -48.75868618 366.6599468 C-78.58510358 396.46565699 -108.41876151 426.26411158 -138.25718689 456.05780029 C-136.30329371 456.06000013 -136.30329371 456.06000013 -134.30992794 456.06224442 C-103.38666693 456.09794892 -72.46351911 456.15419369 -41.54034754 456.23572125 C-37.7339656 456.24573866 -33.92758323 456.2555828 -30.12120056 456.26531982 C-29.36342058 456.2672612 -28.6056406 456.26920257 -27.82489759 456.27120277 C-15.55616371 456.30222111 -3.28744853 456.31920295 8.98131717 456.33099452 C21.57087249 456.34340695 34.16032967 456.3709104 46.74982303 456.41241336 C54.51780247 456.4375462 62.28561915 456.45091774 70.05363982 456.44922987 C76.01087604 456.44919658 81.96792236 456.470163 87.9250927 456.49896812 C90.36838746 456.50749362 92.81171691 456.50919918 95.25502014 456.50360298 C98.58978065 456.4969818 101.92354866 456.51484017 105.25820923 456.53881836 C106.71007569 456.52717773 106.71007569 456.52717773 108.1912728 456.51530194 C115.51489167 456.60858773 119.94273564 458.18592596 125.18031311 463.55780029 C127.48862016 468.72840809 127.50070208 473.48463694 126.74281311 479.05780029 C124.5911097 483.52059256 121.83780525 486.2936806 117.74281311 489.05780029 C114.5398898 490.11463929 111.56264782 490.18495665 108.20405197 490.18922806 C107.070368 490.1930692 105.93668403 490.19691035 104.768646 490.20086789 C102.89982021 490.19956817 102.89982021 490.19956817 100.99324036 490.19824219 C99.65650543 490.20082619 98.31977127 490.20383945 96.98303819 490.20724559 C93.30604846 490.21531551 89.62907826 490.21710517 85.95208073 490.21784306 C81.98724913 490.21969377 78.02242767 490.22724148 74.05760193 490.23397827 C65.3834888 490.24756488 56.70938029 490.25358761 48.03525829 490.25798893 C42.61516662 490.26075236 37.19507673 490.26499006 31.77498627 490.2694931 C16.75929756 490.28168916 1.74361027 490.29198588 -13.27208328 490.29536819 C-14.71399697 490.29569754 -14.71399697 490.29569754 -16.18504022 490.29603355 C-17.63037016 490.29636096 -17.63037016 490.29636096 -19.10489869 490.29669499 C-21.05735413 490.29713846 -23.00980957 490.29758502 -24.96226501 490.29803467 C-25.93074646 490.2982561 -26.8992279 490.29847753 -27.89705727 490.29870567 C-43.56734213 490.3026482 -59.23758033 490.32008407 -74.9078472 490.34339419 C-91.00846963 490.3671503 -107.1090687 490.37957208 -123.20970893 490.38073611 C-132.24446384 490.3816508 -141.27915805 490.38735038 -150.31389618 490.40555573 C-158.0128096 490.4210147 -165.71164358 490.4260434 -173.41056958 490.41781762 C-177.3335556 490.41393073 -181.25638197 490.41474362 -185.17934799 490.42887497 C-214.30557486 490.52780524 -241.41487531 487.87545646 -264.40440369 468.04803467 C-264.99568149 467.53865105 -265.58695929 467.02926743 -266.19615459 466.50444794 C-274.95792104 458.82560418 -283.12247784 450.50329264 -291.35200715 442.26456261 C-293.28347251 440.3320109 -295.2179436 438.40248075 -297.15232581 436.47284937 C-301.72076259 431.91541482 -306.28396836 427.35279046 -310.84385681 422.7868042 C-315.51473344 418.10987691 -320.19474591 413.44223557 -324.87925988 408.7789712 C-328.93692313 404.73902411 -332.98864764 400.69318568 -337.03584212 396.64275122 C-339.43759674 394.23920168 -341.84141365 391.83782189 -344.25109291 389.44221497 C-363.45079061 370.33152037 -363.45079061 370.33152037 -370.25718689 360.05780029 C-370.69527176 359.40244293 -371.13335663 358.74708557 -371.5847168 358.0718689 C-384.67117283 337.65318688 -388.9040536 312.76672955 -384.25718689 288.93280029 C-379.1826591 271.4221058 -368.15370097 258.64466181 -355.46060181 245.99378967 C-354.38454713 244.91399042 -353.3089232 243.83376178 -352.23368865 242.75314587 C-349.30165209 239.80896445 -346.36348916 236.87096669 -343.42419112 233.93403709 C-340.2460238 230.75628009 -337.07360128 227.57279615 -333.90037537 224.3901062 C-327.69247791 218.16564649 -321.47908134 211.94670487 -315.26345643 205.72996251 C-310.2098752 200.6754289 -305.15788079 195.61931471 -300.10698891 190.56209373 C-285.77145493 176.20896333 -271.43175245 161.86001635 -257.08666661 147.51643238 C-256.31447394 146.74431963 -255.54228128 145.97220688 -254.74668884 145.17669678 C-253.97354781 144.40363751 -253.20040679 143.63057824 -252.40383724 142.83409294 C-239.8682419 130.29931089 -227.34265959 117.75457582 -214.82157209 105.20530329 C-201.95008217 92.30506936 -189.07113266 79.41232428 -176.18439895 66.5273177 C-168.95547254 59.29905448 -161.72964011 52.06776027 -154.51183128 44.82839394 C-148.36858599 38.66691732 -142.21842653 32.51244647 -136.05928095 26.36686245 C-132.91969938 23.23379949 -129.78338102 20.09764894 -126.65576363 16.95263863 C-123.78793267 14.06902427 -120.91088202 11.19494375 -118.02647231 8.32791557 C-116.98939203 7.29389348 -115.95561678 6.25654259 -114.92568096 5.21540407 C-84.32459425 -25.69615316 -33.59103137 -28.90345127 0 0 Z M-93.66650391 31.10635376 C-94.46231934 31.89960591 -95.25813476 32.69285807 -96.07806581 33.51014817 C-98.72445026 36.1516185 -101.36001731 38.80361631 -103.99571228 41.45574951 C-105.89785206 43.35873607 -107.80057892 45.26111816 -109.70405579 47.1627655 C-113.79147856 51.24862051 -117.8734028 55.33990183 -121.95157051 59.43499374 C-127.84781036 65.35568666 -133.75238509 71.26801002 -139.65898161 77.17836882 C-149.24341764 86.76935947 -158.82114464 96.3670207 -168.39463806 105.96893311 C-177.69058704 115.29244832 -186.9897034 124.6127857 -196.29307556 133.92889404 C-196.8672012 134.50380785 -197.44132683 135.07872165 -198.03285021 135.67105709 C-200.91328852 138.55541071 -203.79378898 141.43970224 -206.67432034 144.32396293 C-230.54491906 168.22562671 -254.40462267 192.13813908 -278.25718689 216.05780029 C-274.2118305 220.91048911 -269.9763486 225.48058468 -265.49940491 229.93583679 C-264.51778785 230.91873549 -264.51778785 230.91873549 -263.51634014 231.92149073 C-261.34003491 234.09943282 -259.16019391 236.27379993 -256.98033142 238.44818115 C-255.41274898 240.01548131 -253.84538712 241.58300212 -252.27822876 243.15072632 C-248.03508762 247.39415382 -243.78887505 251.63449569 -239.54209757 255.87428355 C-235.10002871 260.31009206 -230.66080029 264.74874137 -226.2212677 269.18708801 C-218.77326284 276.63234007 -211.32351557 284.07584535 -203.87242126 291.51800537 C-196.2003461 299.18089088 -188.52932986 306.8448339 -180.85972595 314.51019287 C-180.14969202 315.21983272 -180.14969202 315.21983272 -179.42531396 315.94380873 C-177.05045321 318.31736437 -174.67561316 320.69094073 -172.3007834 323.06452739 C-152.62274678 342.73211752 -132.94114422 362.39613593 -113.25718689 382.05780029 C-110.25309344 380.70899654 -108.15853196 379.21007709 -105.83286572 376.88795471 C-105.17085665 376.23177784 -104.50884758 375.57560097 -103.82677764 374.89953995 C-103.10781461 374.1767976 -102.38885159 373.45405525 -101.64810181 372.70941162 C-100.87783167 371.94296703 -100.10756154 371.17652245 -99.31394988 370.38685226 C-96.72602531 367.80927213 -94.14533314 365.22457046 -91.56455994 362.63983154 C-89.71369011 360.79330754 -87.86240229 358.94720243 -86.01072693 357.10148621 C-81.49802361 352.60154164 -76.99082443 348.0961227 -72.48566636 343.58862537 C-68.8213209 339.92249688 -65.15521384 336.25813904 -61.48784828 332.59503174 C-60.96586803 332.07364667 -60.44388777 331.55226161 -59.90608994 331.01507699 C-58.84562437 329.9558232 -57.78515762 328.89657058 -56.7246897 327.83731914 C-46.77480263 317.89831341 -36.83144987 307.95279032 -26.89005093 298.00529552 C-17.80661814 288.91670052 -8.71501659 279.83632801 0.38050769 270.75983512 C9.72594565 261.43380108 19.06578173 252.10219052 28.39964646 242.7645731 C33.63734441 237.52496601 38.87720208 232.28756429 44.12293434 227.05599976 C49.06042977 222.13170475 53.98997985 217.19957316 58.91436005 212.26216316 C60.71970684 210.45445403 62.52759802 208.64928173 64.33825493 206.8468914 C66.81679161 204.37885296 69.28582181 201.90166541 71.7527771 199.42205811 C72.82118339 198.36471324 72.82118339 198.36471324 73.91117364 197.28600788 C85.03523648 186.04226428 91.04099983 175.46919849 91.05751038 159.49432373 C90.63157822 137.12406472 76.42913146 122.64400533 61.58973694 107.69598389 C60.29013535 106.38170662 60.29013535 106.38170662 58.96427917 105.0408783 C56.12925162 102.17622063 53.29039773 99.31541356 50.44984436 96.45623779 C49.96280336 95.96589947 49.47576236 95.47556115 48.97396255 94.97036409 C44.36368594 90.32935348 39.75136026 85.69038788 35.13422108 81.05620384 C29.27809749 75.17818476 23.4322784 69.29031874 17.60004598 63.38859117 C13.469331 59.21037067 9.32693673 55.04395191 5.17601794 50.88580382 C2.70999 48.414865 0.24908821 45.93932063 -2.19922447 43.45081711 C-17.89704885 27.50746178 -33.33182987 13.69585325 -56.81968689 12.74530029 C-72.32442726 12.91843015 -83.16496064 20.4781881 -93.66650391 31.10635376 Z M-306.14683533 243.78631592 C-306.97149292 244.60136597 -307.79615051 245.41641602 -308.64579773 246.25616455 C-309.5436499 247.14976685 -310.44150208 248.04336914 -311.36656189 248.96405029 C-312.74500275 250.33394104 -312.74500275 250.33394104 -314.15129089 251.73150635 C-316.10358886 253.67327452 -318.05352544 255.61738335 -320.00230408 257.56268311 C-322.48465331 260.03958416 -324.97610855 262.50709954 -327.46998215 264.97238922 C-329.85882454 267.33795429 -332.23691595 269.71423481 -334.61656189 272.08905029 C-335.50631714 272.96645874 -336.39607239 273.84386719 -337.31278992 274.74786377 C-347.94415494 285.41733587 -353.23796569 295.77694281 -353.25718689 311.05780029 C-352.09391432 327.36476663 -344.14858715 341.10699249 -333.12657166 352.77728271 C-332.51836106 353.42464229 -331.91015047 354.07200186 -331.28350925 354.73897839 C-323.43261735 363.04966216 -315.3585851 371.14070308 -307.28453064 379.23358154 C-306.45305574 380.06788382 -305.62158085 380.90218609 -304.76490974 381.76177025 C-300.3759228 386.1656048 -295.98418185 390.56666952 -291.58995056 394.965271 C-287.08947042 399.47125681 -282.59836927 403.98647207 -278.1093359 408.50385761 C-274.61657163 412.01534399 -271.11702147 415.52000882 -267.61564827 419.02290916 C-265.95757833 420.68397761 -264.30197514 422.3475126 -262.64904594 424.01369667 C-246.10173491 440.68435541 -229.83544067 456.48357195 -205.00718689 457.43280029 C-187.76883312 457.07115651 -176.48035638 447.80606534 -164.87046814 435.96405029 C-164.04258286 435.13192017 -163.21469757 434.29979004 -162.36172485 433.44244385 C-159.75715473 430.82127802 -157.1632984 428.18980527 -154.56968689 425.55780029 C-152.78979056 423.76283246 -151.00919743 421.96855529 -149.22789001 420.17498779 C-144.8962482 415.8105307 -140.57331722 411.4375949 -136.25718689 407.05780029 C-137.53759455 404.25080555 -138.86704523 402.19809387 -141.04612064 400.01997757 C-141.61727952 399.4442199 -142.1884384 398.86846222 -142.77690512 398.27525735 C-143.40462189 397.65268414 -144.03233866 397.03011094 -144.67907715 396.38867188 C-145.34569947 395.71963514 -146.01232179 395.05059841 -146.69914478 394.36128783 C-148.93844624 392.11634182 -151.18483725 389.87862732 -153.43125916 387.64080811 C-155.03624517 386.03474942 -156.64079821 384.42825794 -158.24494934 382.82136536 C-162.60588553 378.45557622 -166.97305531 374.09607168 -171.34148526 369.73778248 C-175.90471219 365.18332537 -180.46268011 360.62361091 -185.02133179 356.0645752 C-192.67556542 348.41127847 -200.33363681 340.76184214 -207.99424744 333.1149292 C-215.88329742 325.23997814 -223.76882495 317.36152196 -231.65049744 309.47918701 C-232.13628687 308.99335763 -232.62207629 308.50752824 -233.12258662 308.00697675 C-233.60752217 307.52200085 -234.09245772 307.03702494 -234.59208828 306.5373528 C-243.1037747 298.02501231 -251.61835379 289.51557278 -260.13451958 281.00771332 C-263.7656852 277.38008804 -267.39599138 273.75160583 -271.02565193 270.12247467 C-275.29382155 265.85530569 -279.56451846 261.59068238 -283.83723068 257.32806206 C-285.40992656 255.75829984 -286.98176415 254.18767723 -288.55270576 252.61615944 C-290.68692897 250.4814495 -292.82417557 248.34981532 -294.96228027 246.21899414 C-295.59222776 245.58749805 -296.22217526 244.95600195 -296.87121207 244.30536962 C-301.52271842 239.40369167 -301.52271842 239.40369167 -306.14683533 243.78631592 Z " fill="#000000" transform="translate(385.25718688964844,20.94219970703125)"/>
<path d="M0 0 C8.02677995 7.39768413 15.76191247 15.08354433 23.48983765 22.79129028 C24.22588856 23.52451382 24.96193947 24.25773735 25.72029495 25.01317978 C29.60498464 28.88298303 33.48687187 32.75557059 37.36630249 36.63064575 C41.36073245 40.61956334 45.36438029 44.59909489 49.3701992 48.57657051 C52.46536095 51.65309295 55.55377919 54.73631812 58.64039993 57.82140732 C60.11385228 59.29184263 61.58979396 60.75978806 63.06830978 62.22513199 C65.13314621 64.27285873 67.18824996 66.32990276 69.24130249 68.38943481 C69.84706116 68.9859787 70.45281982 69.58252258 71.07693481 70.19714355 C75.28864059 74.4504957 79.09044522 78.88170048 80.31015015 84.90847778 C80.23136676 90.89601547 79.43578246 94.47179053 75.77890015 99.28347778 C71.3864658 103.07694381 67.46519223 104.32798888 61.77890015 104.28347778 C49.3721085 102.90494538 37.32254343 86.00845544 28.84921265 77.55691528 C28.10212917 76.81265919 27.3550457 76.06840309 26.58532333 75.30159378 C22.64227801 71.37343681 18.70203659 67.4424938 14.76425171 63.50906372 C10.70928828 59.45961238 6.64510614 55.41954541 2.57875252 51.38153648 C-0.56273171 48.25869032 -3.69747394 45.12914234 -6.83041763 41.99773026 C-8.32619879 40.5049665 -9.82446973 39.01469308 -11.32531357 37.5270195 C-13.42128058 35.44815924 -15.50752124 33.35998191 -17.59170532 31.26931763 C-18.20681473 30.663423 -18.82192413 30.05752838 -19.45567322 29.43327332 C-23.77681344 25.07003356 -27.60637765 20.61472972 -28.75234985 14.40457153 C-28.68398637 8.53385747 -28.32160865 4.82728483 -24.22109985 0.28347778 C-16.6555965 -6.71461282 -8.11420671 -6.27086444 0 0 Z " fill="#000000" transform="translate(335.2210998535156,99.71652221679688)"/>
</svg>
