<?xml version="1.0" encoding="UTF-8"?>
<svg version="1.1" xmlns="http://www.w3.org/2000/svg" width="512" height="512">
<path d="M0 0 C13.18204185 8.97616938 21.3754871 20.76877651 24.953125 36.23828125 C25.36160959 39.70974354 25.431357 43.12035048 25.390625 46.61328125 C25.37926514 47.98963745 25.37926514 47.98963745 25.36767578 49.39379883 C25.02473884 63.55559279 19.08073067 76.28274655 8.953125 86.23828125 C-3.78826562 97.63092107 -18.2527098 101.32591571 -34.93408203 100.44677734 C-41.38948459 99.80974085 -47.54120955 97.65616722 -53.16015625 94.4765625 C-55.84892556 92.94612177 -55.84892556 92.94612177 -57.902771 93.8495636 C-60.71618245 95.67178591 -62.87753833 97.83837733 -65.23925781 100.21948242 C-65.99626732 100.97846329 -65.99626732 100.97846329 -66.76856995 101.7527771 C-68.43369376 103.42438338 -70.09172288 105.10285384 -71.75 106.78125 C-72.91287866 107.95040515 -74.07627803 109.11904259 -75.24017334 110.28718567 C-78.3057193 113.36603244 -81.36565915 116.45038586 -84.42401123 119.53637695 C-89.30310905 124.45856539 -94.18879484 129.37418915 -99.07796478 134.28637123 C-100.77523999 135.9937678 -102.46899807 137.70459468 -104.16241455 139.41581726 C-105.22045923 140.4807017 -106.27861996 141.54547086 -107.33691406 142.61010742 C-108.70447845 143.99005135 -108.70447845 143.99005135 -110.09967041 145.39787292 C-112.17280749 147.44081966 -114.32403899 149.3469507 -116.53937817 151.23414898 C-121.96314383 155.96696276 -127.02413708 161.0603655 -132.11402893 166.14480591 C-133.21864361 167.24468098 -134.32346409 168.3443494 -135.42847103 169.44383037 C-138.44738849 172.4489355 -141.46322193 175.45711866 -144.47849429 178.46588063 C-147.06885046 181.04983647 -149.66103422 183.63195504 -152.25323475 186.21406044 C-160.7821379 194.70976942 -169.30525398 203.21127135 -177.82676664 211.71439248 C-180.04452309 213.92734914 -182.26237084 216.14021427 -184.48023868 218.35305929 C-198.25723356 232.09910626 -212.03209445 245.84728937 -225.80201817 259.60042 C-228.98557703 262.78002957 -232.16916276 265.95961224 -235.3527832 269.13916016 C-236.53964594 270.32451036 -236.53964594 270.32451036 -237.75048571 271.53380702 C-250.59649135 284.36276959 -263.45450727 297.17962613 -276.3173504 309.99170436 C-289.52390922 323.14656872 -302.71919007 336.31266162 -315.9035601 349.48976505 C-323.30645594 356.88799138 -330.71435312 364.28105883 -338.13501167 371.66147232 C-344.44708077 377.93934851 -350.74900513 384.22718341 -357.03764642 390.52853121 C-360.2481822 393.74491679 -363.46347122 396.95615509 -366.6918869 400.15460205 C-369.64355555 403.0790917 -372.58120804 406.01692005 -375.50803732 408.96626292 C-376.57250861 410.03398091 -377.6421396 411.09658312 -378.717205 412.15363337 C-380.1712147 413.58473144 -381.6052688 415.03602229 -383.03804874 416.48837471 C-384.24418075 417.69190234 -384.24418075 417.69190234 -385.47467905 418.91974366 C-387.33020987 421.14063268 -387.33020987 421.14063268 -386.85382313 423.89916408 C-385.80367489 426.94325042 -384.48823251 429.77145838 -383.08203125 432.6640625 C-380.55848236 438.93960482 -379.68046193 444.8509272 -379.734375 451.55078125 C-379.74001465 452.29352295 -379.7456543 453.03626465 -379.75146484 453.80151367 C-380.03725017 466.83587115 -384.96398224 479.8192924 -394.015625 489.3671875 C-407.3651141 501.66412073 -420.87298415 505.86429538 -438.55859375 505.57421875 C-453.38268888 504.95516249 -464.85388832 497.9114844 -474.921875 487.36328125 C-483.62505337 477.19921222 -487.63941297 465.15840254 -487.484375 451.86328125 C-487.47680176 450.94571045 -487.46922852 450.02813965 -487.46142578 449.08276367 C-487.11848884 434.92096971 -481.17448067 422.19381595 -471.046875 412.23828125 C-458.30548438 400.84564143 -443.8410402 397.15064679 -427.15966797 398.02978516 C-420.70426541 398.66682165 -414.55254045 400.82039528 -408.93359375 404 C-406.24482444 405.53044073 -406.24482444 405.53044073 -404.190979 404.6269989 C-401.37756755 402.80477659 -399.21621167 400.63818517 -396.85449219 398.25708008 C-396.34981918 397.75109283 -395.84514618 397.24510559 -395.32518005 396.7237854 C-393.66005624 395.05217912 -392.00202712 393.37370866 -390.34375 391.6953125 C-389.18087134 390.52615735 -388.01747197 389.35751991 -386.85357666 388.18937683 C-383.7880307 385.11053006 -380.72809085 382.02617664 -377.66973877 378.94018555 C-372.79064095 374.01799711 -367.90495516 369.10237335 -363.01578522 364.19019127 C-361.31851001 362.4827947 -359.62475193 360.77196782 -357.93133545 359.06074524 C-356.87329077 357.9958608 -355.81513004 356.93109164 -354.75683594 355.86645508 C-353.84512634 354.94649246 -352.93341675 354.02652985 -351.99407959 353.07868958 C-349.92094251 351.03574284 -347.76971101 349.1296118 -345.55437183 347.24241352 C-340.13060617 342.50959974 -335.06961292 337.416197 -329.97972107 332.33175659 C-328.87510639 331.23188152 -327.77028591 330.1322131 -326.66527897 329.03273213 C-323.64636151 326.027627 -320.63052807 323.01944384 -317.61525571 320.01068187 C-315.02489954 317.42672603 -312.43271578 314.84460746 -309.84051525 312.26250206 C-301.3116121 303.76679308 -292.78849602 295.26529115 -284.26698336 286.76217002 C-282.04922691 284.54921336 -279.83137916 282.33634823 -277.61351132 280.12350321 C-263.83651644 266.37745624 -250.06165555 252.62927313 -236.29173183 238.8761425 C-233.10817297 235.69653293 -229.92458724 232.51695026 -226.7409668 229.33740234 C-225.55410406 228.15205214 -225.55410406 228.15205214 -224.34326429 226.94275548 C-211.49725865 214.11379291 -198.63924273 201.29693637 -185.7763996 188.48485814 C-172.56984078 175.32999378 -159.37455993 162.16390088 -146.1901899 148.98679745 C-138.78729406 141.58857112 -131.37939688 134.19550367 -123.95873833 126.81509018 C-117.64666923 120.53721399 -111.34474487 114.24937909 -105.05610358 107.94803129 C-101.8455678 104.73164571 -98.63027878 101.52040741 -95.4018631 98.32196045 C-92.45019445 95.3974708 -89.51254196 92.45964245 -86.58571268 89.51029958 C-85.52124139 88.44258159 -84.4516104 87.37997938 -83.376545 86.32292913 C-81.9225353 84.89183106 -80.4884812 83.44054021 -79.05570126 81.98818779 C-77.84956925 80.78466016 -77.84956925 80.78466016 -76.61907095 79.55681884 C-74.76354013 77.33592982 -74.76354013 77.33592982 -75.23992687 74.57739842 C-76.29007511 71.53331208 -77.60551749 68.70510412 -79.01171875 65.8125 C-81.53526764 59.53695768 -82.41328807 53.6256353 -82.359375 46.92578125 C-82.35373535 46.18303955 -82.3480957 45.44029785 -82.34228516 44.67504883 C-82.05649983 31.64069135 -77.12976776 18.6572701 -68.078125 9.109375 C-49.33035349 -8.16020683 -22.60185435 -13.06850809 0 0 Z M-44.046875 19.23828125 C-44.74554688 19.65078125 -45.44421875 20.06328125 -46.1640625 20.48828125 C-52.85525487 24.93224298 -57.0829694 31.47967404 -59.484375 39.11328125 C-61.09091609 47.41374357 -59.73517028 55.58571774 -55.62109375 62.91796875 C-50.18308055 70.93330335 -43.71318542 75.93929789 -34.16015625 77.80078125 C-24.27866198 79.01540795 -16.26106283 76.88230342 -8.15625 71.10546875 C-1.60583324 65.30713688 2.4186243 58.20263038 3.19921875 49.4921875 C3.60246952 39.89970701 1.40316673 32.87816038 -4.671875 25.42578125 C-9.8882048 19.89627593 -17.17962789 15.64950296 -24.8671875 15 C-32.26064868 14.833953 -37.69146285 15.37187081 -44.046875 19.23828125 Z M-456.046875 429.23828125 C-462.90306692 437.28514772 -465.5676277 444.36259383 -465.3515625 454.92578125 C-464.50363444 464.14428114 -459.99238457 471.23934879 -453.046875 477.23828125 C-444.21796597 482.71874478 -435.9081551 484.59196139 -425.57421875 482.8125 C-417.41057334 480.46563192 -411.13048118 475.4335944 -406.609375 468.30078125 C-402.0612683 459.89941748 -401.18913917 452.69806763 -403.046875 443.23828125 C-406.00836216 434.37934982 -411.90586113 427.04189152 -420.296875 422.80078125 C-432.96496731 417.91669747 -445.91577531 420.2516206 -456.046875 429.23828125 Z " fill="#000000" transform="translate(487.046875,6.76171875)"/>
</svg>
