<?xml version="1.0" encoding="UTF-8"?>
<svg version="1.1" xmlns="http://www.w3.org/2000/svg" width="512" height="512">
<path d="M0 0 C1.55300812 -0.00065712 1.55300812 -0.00065712 3.13739014 -0.00132751 C6.52457214 0.00074537 9.91124541 0.02400547 13.29833984 0.04760742 C15.66059092 0.05320871 18.0228455 0.05747629 20.38510132 0.06047058 C26.57633228 0.07187734 32.76734919 0.1013086 38.95849609 0.13458252 C45.28659165 0.16537345 51.61472208 0.17899516 57.94287109 0.1940918 C70.3401001 0.22618233 82.73717086 0.27732807 95.13427734 0.34057617 C95.13924256 1.31488319 95.13924256 1.31488319 95.14430809 2.30887318 C95.22571474 18.15200286 95.3178642 33.99502876 95.42180443 49.83802509 C95.47181421 57.49974405 95.51825792 65.16145293 95.55615234 72.82324219 C95.58921056 79.5053465 95.6291169 86.18736983 95.6770674 92.86938447 C95.70219574 96.40374148 95.72401638 99.93804571 95.73762131 103.47246742 C95.75297991 107.42900761 95.78363534 111.38535308 95.81542969 115.34179688 C95.81758987 116.49914337 95.81975006 117.65648987 95.82197571 118.84890747 C95.93789338 130.18923229 96.90476338 140.22371121 104.13427734 149.34057617 C114.15494146 159.15420177 126.23392611 159.49104926 139.50439453 159.48583984 C140.73620453 159.48919846 141.96801453 159.49255707 143.2371521 159.49601746 C146.6010242 159.50386652 149.96483454 159.5071937 153.32871151 159.50783324 C155.43560739 159.50854643 157.54249689 159.51068585 159.64939117 159.51333046 C167.01480008 159.52256983 174.38019096 159.52666721 181.74560547 159.52587891 C188.58643805 159.52527886 195.42719158 159.53581985 202.26800418 159.55162257 C208.16126585 159.56474605 214.05450184 159.57006078 219.94777799 159.5694235 C223.45858879 159.56916987 226.96932932 159.5719455 230.48012543 159.58260155 C234.40230833 159.59418219 238.32438488 159.5895064 242.24658203 159.58349609 C243.39293121 159.5891156 244.5392804 159.59473511 245.72036743 159.6005249 C257.04072038 159.55664103 267.03798629 158.55377539 276.13427734 151.34057617 C285.98783982 141.27913263 286.27417801 129.11477454 286.33959961 115.79589844 C286.34949921 114.54641922 286.3593988 113.29694 286.36959839 112.00959778 C286.39568393 108.60103532 286.41758771 105.19249499 286.43760037 101.78389478 C286.45955293 98.2151121 286.48689603 94.64637073 286.51365662 91.07762146 C286.56345872 84.32759388 286.60844355 77.57754321 286.65167898 70.82747072 C286.70115843 63.13939838 286.75603666 55.45136751 286.81135857 47.76333535 C286.92498685 31.95578733 287.03186716 16.14820109 287.13427734 0.34057617 C292.43614293 0.24139031 297.73746353 0.16895862 303.04003906 0.12084961 C304.84221815 0.10078585 306.64433255 0.07352804 308.44628906 0.03881836 C311.04296871 -0.00993211 313.63878463 -0.03244465 316.23583984 -0.05004883 C317.03607574 -0.07069397 317.83631165 -0.09133911 318.66079712 -0.11260986 C327.54680389 -0.11614077 332.04775024 5.02396731 338.07778931 11.01303101 C338.96944794 11.9087381 339.86110657 12.80444519 340.77978516 13.72729492 C341.74251742 14.68731384 342.70567391 15.64690749 343.66921997 16.60610962 C346.27277055 19.2005772 348.8699969 21.80128924 351.4658289 24.40347672 C354.18717079 27.12989689 356.91340577 29.85141733 359.63885498 32.57373047 C364.21189559 37.143138 368.7807152 41.71673416 373.34716797 46.29272461 C378.62509191 51.58154485 383.9101997 56.86310413 389.19907117 62.140975 C393.74469932 66.67752706 398.28641827 71.21796513 402.82489276 75.76167393 C405.53353411 78.47343152 408.24350445 81.18382386 410.95700836 83.89071655 C413.50603795 86.43396819 416.05012397 88.98206386 418.5904808 91.53397751 C419.96795177 92.91535271 421.35034832 94.29181074 422.73287964 95.66812134 C423.5515451 96.49242645 424.37021057 97.31673157 425.21368408 98.16601562 C425.92673328 98.87981888 426.63978249 99.59362213 427.37443924 100.32905579 C430.70180624 104.13228436 431.38455096 107.01855439 431.39154625 112.04668427 C431.39799514 113.21766899 431.40444403 114.38865371 431.41108835 115.59512281 C431.40644254 117.52640555 431.40644254 117.52640555 431.40170288 119.4967041 C431.40543872 120.87753946 431.41003998 122.25837271 431.41543353 123.63920259 C431.42768804 127.43795082 431.42740016 131.23661115 431.42504478 135.03537464 C431.4246372 139.13101883 431.4356703 143.22663462 431.44515991 147.32226562 C431.46178627 155.34957844 431.46727027 163.37686189 431.46838467 171.40419048 C431.46933474 177.93145697 431.47344299 184.45871375 431.47978592 190.98597717 C431.4974058 209.49497109 431.50662407 228.0039418 431.50512497 246.51294416 C431.50504506 247.51116038 431.50496515 248.5093766 431.50488281 249.5378418 C431.50480105 250.53727863 431.50471929 251.53671546 431.50463505 252.56643826 C431.5038228 268.75029948 431.52294307 284.93406747 431.55115955 301.11790174 C431.57990816 317.73831535 431.59369863 334.35868354 431.59197199 350.97912264 C431.59130859 360.30887059 431.59677872 369.63852092 431.61832809 378.96824646 C431.63656631 386.91542837 431.64086589 394.86246847 431.62730925 402.80966228 C431.62079178 406.86180918 431.6206177 410.91368424 431.63801575 414.96580505 C431.65380701 418.68208842 431.65082182 422.39788579 431.63344748 426.11415774 C431.62895266 428.08148059 431.64398768 430.04881887 431.65992677 432.01608229 C431.54730279 446.61017681 426.68720797 457.45731722 416.82177734 468.09057617 C407.23977138 477.15926039 395.9720761 480.86572371 382.97021484 480.63354492 C382.05213043 480.62930008 381.13404602 480.62505524 380.18814087 480.62068176 C377.29487056 480.60407115 374.40233224 480.56645392 371.50927734 480.52807617 C369.53142292 480.5130065 367.55355742 480.49932212 365.57568359 480.48706055 C360.76160532 480.4542257 355.94806483 480.40256855 351.13427734 480.34057617 C351.12931212 479.24534496 351.12931212 479.24534496 351.1242466 478.12798786 C351.04282349 460.31470107 350.95066876 442.50149889 350.84675026 424.68832874 C350.79675035 416.07381252 350.75030661 407.45930521 350.71240234 398.84472656 C350.67933377 391.33125793 350.63942191 383.81786117 350.59148729 376.30447215 C350.56636915 372.33074493 350.54454562 368.35706448 350.53093338 364.3832798 C350.51797832 360.63303062 350.4957835 356.88294309 350.46689415 353.13278389 C350.45368659 351.1207099 350.44992307 349.10858062 350.44657898 347.09646606 C350.28662639 329.47982066 347.773905 315.33412076 335.25537109 302.39916992 C323.30116956 291.21776526 309.23720437 289.17765557 293.51530457 289.2068634 C292.60121694 289.20459785 291.68712932 289.20233229 290.74534208 289.19999808 C287.71115561 289.19371559 284.67701448 289.19448371 281.64282227 289.1953125 C279.45557091 289.19231744 277.26832009 289.18891411 275.08106995 289.18513489 C269.15948766 289.17632661 263.23791983 289.17395813 257.31633162 289.1733191 C253.61186496 289.17260687 249.90740193 289.17046928 246.20293617 289.16782188 C232.59807005 289.15810252 218.99321528 289.15455569 205.38834593 289.15539732 C195.34848348 289.15577836 185.30865214 289.14798163 175.26879883 289.13476562 C163.58389721 289.11943724 151.89901859 289.11100839 140.21410638 289.11172885 C134.03838893 289.11198318 127.86271135 289.10916735 121.68700218 289.0985508 C115.87653207 289.08883407 110.06613967 289.08881509 104.25566673 289.09606743 C102.13092942 289.09710879 100.00618718 289.09477722 97.88145828 289.08870697 C77.79487139 289.03506568 60.40269952 289.49930642 45.19287109 304.21948242 C32.84269944 317.42322965 32.00425704 333.38730391 31.92895508 350.58105469 C31.91935864 352.00108616 31.90934757 353.42111487 31.8989563 354.84114075 C31.87209224 358.67104643 31.85098343 362.50096421 31.83095431 366.33091092 C31.80897963 370.34277588 31.7816475 374.35460437 31.75489807 378.36643982 C31.70512557 385.95222026 31.66012992 393.53802112 31.61687571 401.12384123 C31.56737075 409.76478024 31.51250209 418.40568263 31.45719612 427.04658616 C31.34361335 444.81121544 31.23672336 462.57587935 31.13427734 480.34057617 C25.37260843 480.44036527 19.61145606 480.51247459 13.84912109 480.56030273 C11.89395368 480.58026656 9.9388448 480.60744753 7.98388672 480.64233398 C-10.05583155 480.95590782 -22.95880343 478.69882837 -36.61572266 466.02807617 C-47.71482557 454.30072215 -49.31676925 441.38021617 -49.25340271 425.88137817 C-49.25758008 424.21487694 -49.26305981 422.54837856 -49.26972252 420.88188541 C-49.28414292 416.32135334 -49.27994307 411.76100252 -49.27255571 407.20046067 C-49.2678179 402.27464505 -49.28033932 397.34886828 -49.29057312 392.42306519 C-49.30775447 382.78029845 -49.30860249 373.13759689 -49.30336022 363.49481882 C-49.29931602 355.65571758 -49.30076504 347.81663557 -49.30610847 339.97753525 C-49.3068569 338.86110888 -49.30760532 337.74468251 -49.30837642 336.59442504 C-49.30990792 334.32628116 -49.31144627 332.05813727 -49.31299139 329.78999339 C-49.32671405 308.52777536 -49.3212804 287.26559414 -49.30980618 266.00337695 C-49.29987422 246.56077128 -49.31281427 227.11826079 -49.33674037 207.6756698 C-49.3611354 187.70118618 -49.37073823 167.72674687 -49.36408764 147.75224864 C-49.36059631 136.54241663 -49.36282188 125.3326578 -49.38033867 114.12283707 C-49.39506567 104.58013735 -49.39568951 95.03756236 -49.37826776 85.49486507 C-49.36975953 80.62854051 -49.36760397 75.7624387 -49.38291931 70.89612579 C-49.39678151 66.43623194 -49.39198357 61.97675138 -49.37268008 57.51688133 C-49.36892446 55.90863402 -49.37182933 54.30035349 -49.38229173 52.69213583 C-49.47978649 36.55043595 -45.69213774 24.59643512 -34.55322266 12.59057617 C-24.70518047 3.27010767 -13.30677293 -0.15025201 0 0 Z " fill="#000000" transform="translate(64.86572265625,15.659423828125)"/>
<path d="M0 0 C0.96461151 -0.00623996 1.92922302 -0.01247993 2.92306519 -0.01890898 C6.1520845 -0.03485099 9.38035022 -0.02222963 12.609375 -0.00964355 C14.92562297 -0.01506411 17.24186749 -0.0221864 19.55810547 -0.03088379 C25.84729455 -0.04912772 32.13622133 -0.042045 38.42541504 -0.02936745 C45.00497142 -0.01924544 51.58450524 -0.02863091 58.1640625 -0.03491211 C69.92148203 -0.04345692 81.67879115 -0.03022092 93.43619156 -0.00987476 C104.09293685 0.00799589 114.74950785 0.00489166 125.40625 -0.0135498 C137.78656125 -0.03496393 150.16676138 -0.04291967 162.54708862 -0.03110075 C169.0988178 -0.02486231 175.65042695 -0.02403996 182.20214844 -0.0372467 C188.36147014 -0.04879504 194.52046245 -0.04079758 200.67974854 -0.01766968 C202.94125827 -0.01237722 205.20279569 -0.01390548 207.46429443 -0.02272034 C210.54948815 -0.03363775 213.63362385 -0.01995733 216.71875 0 C218.06379105 -0.01338433 218.06379105 -0.01338433 219.43600464 -0.02703905 C224.88480651 0.04141153 228.12430264 0.75949376 232.359375 4.50793457 C235.81301962 8.70395903 236.85848845 11.52256898 236.84039307 16.92404175 C236.84865805 18.8256585 236.84865805 18.8256585 236.85709 20.76569176 C236.84290531 22.16333752 236.82835374 23.5609796 236.81347656 24.95861816 C236.81225038 26.46119457 236.81278662 27.96377328 236.81493759 29.46634865 C236.81583872 33.48147099 236.79269666 37.49611415 236.76449585 41.51112366 C236.74167501 45.28196686 236.74064119 49.05269495 236.73779297 52.8236084 C236.71682385 63.84344698 236.660979 74.86319687 236.609375 85.88293457 C236.526875 110.50918457 236.444375 135.13543457 236.359375 160.50793457 C151.879375 160.50793457 67.399375 160.50793457 -19.640625 160.50793457 C-19.723125 135.88168457 -19.805625 111.25543457 -19.890625 85.88293457 C-19.92704102 78.10650391 -19.96345703 70.33007324 -20.00097656 62.31799316 C-20.01904297 52.8236084 -20.01904297 52.8236084 -20.0223999 48.37918091 C-20.02612729 45.27432833 -20.04111976 42.16974919 -20.06292725 39.06497192 C-20.09038583 35.10308758 -20.09858575 31.14160023 -20.0929141 27.17962956 C-20.09409987 25.72657209 -20.10201931 24.27350058 -20.11748552 22.82052493 C-20.13743228 20.85513127 -20.1301856 18.88951807 -20.12164307 16.92404175 C-20.12533024 15.82342093 -20.12901741 14.7228001 -20.13281631 13.58882713 C-19.31254005 8.4542728 -16.81964444 5.55147863 -12.99316406 2.16468048 C-8.52600046 -0.04288665 -4.91770556 -0.04893545 0 0 Z " fill="#000000" transform="translate(147.640625,335.4920654296875)"/>
<path d="M0 0 C42.24 0 84.48 0 128 0 C128 42.24 128 84.48 128 128 C85.76 128 43.52 128 0 128 C0 85.76 0 43.52 0 0 Z " fill="#000000" transform="translate(192,16)"/>
</svg>
