<?xml version="1.0" encoding="UTF-8"?>
<svg version="1.1" xmlns="http://www.w3.org/2000/svg" width="512" height="512">
<path d="M0 0 C5.57353656 3.20340533 9.82185628 7.54150134 14.33207703 12.07810974 C15.1558809 12.89879364 15.97968478 13.71947753 16.82845241 14.56503063 C19.10445861 16.83445538 21.37594649 19.10829101 23.64555752 21.38410819 C26.0979747 23.84105864 28.5561498 26.29223689 31.01358032 28.74417114 C35.82268922 33.54439414 40.62638442 38.34999956 45.4281505 43.1575666 C49.33067789 47.06461311 53.23515587 50.96970029 57.14103127 54.87339973 C57.97528402 55.70719279 57.97528402 55.70719279 58.82639036 56.55783014 C59.95627649 57.68707682 61.08616711 58.81631901 62.21606217 59.94555677 C72.8065608 70.5303546 83.3909245 81.12127006 93.97319642 91.71429176 C103.05296237 100.80299545 112.13796272 109.88643919 121.22680664 118.96606445 C131.78380623 129.51236125 142.3375541 140.0618946 152.88613254 150.61661488 C154.01088951 151.74200894 155.13565066 152.86739883 156.26041603 153.9927845 C156.81381013 154.54648715 157.36720423 155.1001898 157.93736785 155.67067133 C161.83700834 159.57203854 165.73896457 163.4710804 169.64182091 167.36923027 C174.39735242 172.11915298 179.14930474 176.87262185 183.89670309 181.63067394 C186.31885853 184.05808568 188.7425857 186.48387062 191.17067528 188.90534782 C193.80138624 191.53061132 196.42588705 194.161929 199.0488739 196.79490662 C200.20274795 197.9420885 200.20274795 197.9420885 201.37993258 199.11244577 C210.42689824 208.226584 210.42689824 208.226584 210.4375 214.9375 C210.28952796 219.67260529 209.1815139 222.37660917 206 226 C201.99598158 229.74569465 197.72979525 230.16062542 192.40197754 230.01690674 C191.50830978 229.9963472 190.61464203 229.97578766 189.69389343 229.9546051 C188.72563126 229.92736862 187.75736908 229.90013214 186.75976562 229.87207031 C184.62433308 229.8226664 182.48887398 229.77440072 180.35339355 229.72711182 C179.22263901 229.70135323 178.09188446 229.67559464 176.92686462 229.64905548 C169.63270131 229.50209861 162.33718679 229.4481188 155.04189301 229.3852272 C148.65191358 229.32507173 142.26710377 229.2272413 135.87939453 229.04345703 C105.59712257 226.50866649 105.59712257 226.50866649 78.50818634 236.85630417 C74.58038153 240.58689792 71.47644916 244.8303037 68.63330078 249.41833496 C64.97398381 255.20240781 60.04704425 260.08996325 55.1875 264.875 C54.33929688 265.71546875 53.49109375 266.5559375 52.6171875 267.421875 C50.87239583 269.140625 49.12760417 270.859375 47.3828125 272.578125 C43.63458062 276.29217847 39.93586363 279.99283352 36.5 284 C31.47574519 289.85966955 25.87758088 295.16536808 20.3828125 300.578125 C15.88756331 305.03238407 11.53787599 309.52580808 7.44824219 314.35742188 C4.45815922 317.74873648 1.91499698 319.75390733 -2.64453125 320.33984375 C-6.68829661 320.47517726 -10.09561753 320.30787488 -13.9375 319 C-18.53783825 314.53906594 -20.21949943 309.63761553 -20.50336456 303.38398743 C-20.52525673 301.18228808 -20.52530888 298.98030409 -20.50793457 296.77856445 C-20.51417453 295.56047498 -20.5204145 294.3423855 -20.52684355 293.08738422 C-20.53999931 289.72291704 -20.53531777 286.35934828 -20.52289867 282.99493647 C-20.51382656 279.3602308 -20.52782858 275.7256021 -20.53881836 272.09091187 C-20.5565852 264.97717807 -20.55277183 257.86361329 -20.5411678 250.74987292 C-20.5321265 244.9673186 -20.53091248 239.18481157 -20.53526306 233.4022522 C-20.53587599 232.57858825 -20.53648893 231.7549243 -20.53712043 230.90630084 C-20.53839936 229.23293295 -20.53969621 227.55956507 -20.5410108 225.88619721 C-20.55241122 210.20277981 -20.53931135 194.51945601 -20.51780933 178.83605397 C-20.49993883 165.38512193 -20.50304309 151.93432798 -20.52148438 138.48339844 C-20.54290061 122.85529781 -20.55131263 107.22727917 -20.53903532 91.59916592 C-20.53776115 89.93202656 -20.53650367 88.26488719 -20.53526306 86.5977478 C-20.53464596 85.77752854 -20.53402886 84.95730928 -20.53339306 84.11223489 C-20.52994241 78.33803766 -20.53576233 72.56389253 -20.54518127 66.78970337 C-20.55641101 59.75083854 -20.55334081 52.7121521 -20.5320583 45.67330766 C-20.52156088 42.08338878 -20.5174034 38.49376709 -20.53065491 34.90385056 C-20.54481238 31.00954493 -20.52788402 27.11572371 -20.50793457 23.22143555 C-20.51685746 22.09069264 -20.52578034 20.95994974 -20.53497362 19.7949419 C-20.46812586 13.07204874 -19.57806151 8.73462983 -16 3 C-11.79533276 -1.07725308 -5.52899752 -0.97390109 0 0 Z " fill="#000000" transform="translate(302,192)"/>
<path d="M0 0 C0.8527652 -0.00807175 1.7055304 -0.01614349 2.58413696 -0.02445984 C4.39477512 -0.03829671 6.20543933 -0.04902064 8.01611328 -0.05688477 C9.84692154 -0.06832933 11.67769845 -0.08865968 13.50830078 -0.1184082 C33.5462475 -0.4438294 50.24742051 3.77085609 65.30126953 17.90844727 C76.05925107 28.56698527 83.53160823 43.85253755 83.71760559 59.08938599 C83.71669418 59.90422455 83.71578278 60.71906311 83.71484375 61.55859375 C83.71912888 62.42088593 83.723414 63.2831781 83.72782898 64.17160034 C83.73353633 65.9817416 83.73409929 67.79190578 83.72973633 69.60205078 C83.72656317 72.36270163 83.75012552 75.1222927 83.77539062 77.8828125 C83.77766277 79.64973824 83.77836751 81.41666684 83.77734375 83.18359375 C83.7865535 84.00248077 83.79576324 84.8213678 83.80525208 85.66506958 C83.75494851 91.92036112 82.30165355 95.97317199 78.2265625 100.86328125 C72.20776799 105.94581883 67.04791291 107.95840485 59.08984375 107.6171875 C52.24409259 106.64778916 47.97615639 103.33677976 43.640625 98.1171875 C40.72304261 93.64789728 40.16073513 89.75806764 40.10546875 84.46875 C40.08033203 83.16744141 40.05519531 81.86613281 40.02929688 80.52539062 C40.00066658 78.47844674 39.97661589 76.43157896 39.95776367 74.38452148 C39.97668136 61.48702247 39.97668136 61.48702247 34.0390625 50.42578125 C27.94658538 45.34871699 23.57056727 44.13648319 15.7421875 44.0625 C14.43765625 44.03865234 13.133125 44.01480469 11.7890625 43.99023438 C9.73101397 43.95526516 7.67354264 43.92584338 5.61523438 43.91235352 C-3.55402608 43.84064972 -10.43763486 43.68092851 -17.609375 37.4921875 C-18.05539062 36.93402344 -18.50140625 36.37585937 -18.9609375 35.80078125 C-19.42242187 35.24519531 -19.88390625 34.68960938 -20.359375 34.1171875 C-24.06139763 28.44625475 -24.43313006 22.83049832 -23.5859375 16.23828125 C-21.32866012 9.11374954 -18.02177059 4.93292617 -11.5859375 1.23828125 C-7.72008168 -0.05033736 -4.03167424 0.03637746 0 0 Z " fill="#000000" transform="translate(364.5859375,-0.23828125)"/>
<path d="M0 0 C2.70210157 -0.00659764 5.40059052 -0.06132303 8.10205078 -0.11791992 C23.70423678 -0.27043854 23.70423678 -0.27043854 30.00561523 4.92138672 C36.19021253 11.36387604 37.12348256 16.20585491 37.04345703 25.1887207 C36.17487599 31.42802787 33.32766329 35.5423007 28.57470703 39.5559082 C21.20605468 44.36464273 14.16718598 44.12568292 5.57470703 44.1184082 C-7.82328213 43.79627251 -7.82328213 43.79627251 -19.66748047 49.2824707 C-20.20630859 49.90895508 -20.74513672 50.53543945 -21.30029297 51.1809082 C-21.85458984 51.79192383 -22.40888672 52.40293945 -22.97998047 53.0324707 C-27.97657754 61.75625911 -26.79830058 72.81317943 -26.90380859 82.51489258 C-26.93023437 83.71823242 -26.95666016 84.92157227 -26.98388672 86.16137695 C-26.99734131 87.24572021 -27.0107959 88.33006348 -27.0246582 89.44726562 C-27.81150677 95.55265432 -30.80137761 99.65126857 -35.42529297 103.5559082 C-41.40814809 107.73981828 -47.23946593 108.57346327 -54.42529297 107.5559082 C-60.60410213 105.75862981 -64.93796829 101.89795651 -68.42529297 96.5559082 C-70.60242096 92.21873562 -70.73188854 88.15408063 -70.72607422 83.39575195 C-70.73035934 82.61003311 -70.73464447 81.82431427 -70.73905945 81.01478577 C-70.74478934 79.35312865 -70.7453129 77.69144646 -70.7409668 76.02978516 C-70.73783334 73.52566909 -70.76118882 71.02276675 -70.78662109 68.51879883 C-70.86482608 49.39678626 -65.95545672 32.67755452 -52.42529297 18.5559082 C-37.44637066 4.20437531 -20.0983377 -0.00549435 0 0 Z " fill="#000000" transform="translate(91.42529296875,-0.555908203125)"/>
<path d="M0 0 C5.19984922 3.2356566 8.94716138 7.21846892 11.25390625 12.94140625 C11.93602136 17.59024395 11.95372297 22.18623681 11.94140625 26.87890625 C11.6062012 42.41551867 11.6062012 42.41551867 18.25390625 55.94140625 C24.79327091 61.09744377 30.60258464 62.0581081 38.8671875 62.046875 C40.73987305 62.06911133 40.73987305 62.06911133 42.65039062 62.09179688 C45.24923749 62.11642435 47.8483419 62.12180947 50.44726562 62.10742188 C58.64992579 62.24673623 64.13937209 63.26581621 70.25390625 68.94140625 C75.55619209 74.63436274 75.79068536 79.93795122 75.72265625 87.57421875 C74.85407521 93.81352591 72.00686251 97.92779874 67.25390625 101.94140625 C60.03295527 106.90810096 52.5380167 106.5524967 44.09350586 106.46289062 C41.72077565 106.44166893 39.35114665 106.46262852 36.97851562 106.48828125 C17.26797714 106.52542608 0.16353872 100.84979963 -14.0859375 86.765625 C-27.89549261 72.10437927 -32.30360638 54.83472153 -32.24707031 35.20458984 C-32.24609206 32.81227267 -32.28798223 30.42311181 -32.33203125 28.03125 C-32.39916969 19.47864441 -32.20233359 12.03041981 -26.74609375 4.94140625 C-19.61983389 -1.76120975 -9.18547564 -3.54091593 0 0 Z " fill="#000000" transform="translate(52.74609375,321.05859375)"/>
<path d="M0 0 C0.82982895 -0.00708481 1.6596579 -0.01416962 2.51463318 -0.02146912 C3.41654892 -0.0189917 4.31846466 -0.01651428 5.24771118 -0.01396179 C6.20426102 -0.01907272 7.16081085 -0.02418365 8.14634705 -0.02944946 C11.30991871 -0.04335472 14.47327273 -0.04238785 17.63687134 -0.04008484 C19.83638592 -0.0439715 22.03589974 -0.04830611 24.2354126 -0.05307007 C28.8471215 -0.06053448 33.45875385 -0.06023956 38.07046509 -0.05497742 C43.97756622 -0.04918524 49.88435356 -0.06610681 55.79140282 -0.08932209 C60.33475575 -0.10406169 64.87803318 -0.10493076 69.42140579 -0.10181236 C71.59908291 -0.10232555 73.77676425 -0.10756277 75.95441818 -0.11762428 C79.00160792 -0.12997427 82.04818731 -0.12320513 85.09536743 -0.11161804 C86.44216835 -0.12308365 86.44216835 -0.12308365 87.81617737 -0.13478088 C94.2600173 -0.08068058 98.37705208 1.24079494 103.42593384 5.44819641 C108.50847142 11.46699092 110.52105744 16.626846 110.17984009 24.58491516 C109.21044175 31.43066632 105.89943235 35.69860252 100.67984009 40.03413391 C95.37832223 43.49500004 90.59708702 43.55757434 84.45596313 43.55122375 C83.521987 43.55794098 82.58801086 43.5646582 81.62573242 43.57157898 C78.54215148 43.59055613 75.45878827 43.59448314 72.37515259 43.59663391 C70.22669892 43.60306236 68.07824614 43.60979076 65.92979431 43.61680603 C61.4266151 43.62877833 56.9235126 43.63248693 52.4203186 43.63130188 C46.66021301 43.63109877 40.90060124 43.65839295 35.1406126 43.6928463 C30.7026902 43.71512432 26.26488643 43.71913913 21.82691383 43.71808243 C19.70390942 43.72043732 17.58090169 43.72925453 15.4579525 43.74474716 C12.48298314 43.76442359 9.50907594 43.75856214 6.53408813 43.74653625 C5.66368393 43.75777527 4.79327972 43.76901428 3.89649963 43.78059387 C-3.47335999 43.70519171 -8.71796186 41.68666506 -14.01156616 36.51069641 C-18.00827815 30.57272432 -20.40692489 24.54902576 -19.19906616 17.26069641 C-17.06343336 9.79869372 -13.04730927 5.03548132 -6.35017967 1.20252705 C-4.03491622 0.18882598 -2.51223111 0.00717705 0 0 Z " fill="#000000" transform="translate(189.19906616210938,-0.2606964111328125)"/>
<path d="M0 0 C5.52013044 3.08039076 8.60528998 6.87836995 10.625 12.9375 C10.72290119 14.29004992 10.76835996 15.64680588 10.77890015 17.00285339 C10.78750061 17.82841736 10.79610107 18.65398132 10.80496216 19.50456238 C10.80922211 20.4069313 10.81348206 21.30930023 10.81787109 22.23901367 C10.83013733 23.66880051 10.83013733 23.66880051 10.84265137 25.12747192 C10.8674941 28.28679782 10.88401963 31.44607878 10.8984375 34.60546875 C10.90376118 35.684956 10.90908485 36.76444324 10.91456985 37.87664223 C10.94129806 43.59166377 10.96067303 49.3066635 10.97509766 55.02172852 C10.99173401 60.91870757 11.0365048 66.81512653 11.0874691 72.71189404 C11.12116078 77.25102871 11.13267729 81.79003082 11.13832474 86.32927895 C11.14503307 88.5025491 11.16024415 90.67581067 11.18421555 92.84895897 C11.21590682 95.89610498 11.21589741 98.94174547 11.20849609 101.98901367 C11.22490143 102.88126144 11.24130676 103.77350922 11.25820923 104.6927948 C11.18893468 111.68533063 8.97845388 116.38818411 4.18221092 121.46455669 C-0.641901 125.81498277 -5.68988688 127.45693855 -12.1640625 127.24609375 C-19.30122061 126.24991797 -24.73482338 123.43434919 -29.21875 117.81640625 C-32.53107034 112.43388569 -32.67189549 107.75063348 -32.66552734 101.5925293 C-32.67224457 100.65855316 -32.67896179 99.72457703 -32.68588257 98.76229858 C-32.70485972 95.67871765 -32.70878673 92.59535443 -32.7109375 89.51171875 C-32.71736595 87.36326509 -32.72409435 85.2148123 -32.73110962 83.06636047 C-32.74308192 78.56318127 -32.74679052 74.06007877 -32.74560547 69.55688477 C-32.74540236 63.79677917 -32.77269654 58.0371674 -32.80714989 52.27717876 C-32.82942791 47.83925636 -32.83344271 43.40145259 -32.83238602 38.96348 C-32.83474091 36.84047558 -32.84355812 34.71746785 -32.85905075 32.59451866 C-32.87872718 29.6195493 -32.87286573 26.6456421 -32.86083984 23.6706543 C-32.87207886 22.80025009 -32.88331787 21.92984589 -32.89489746 21.0330658 C-32.82594107 14.29321992 -31.0686261 9.05897275 -26.62890625 3.9140625 C-26.07074219 3.46804687 -25.51257813 3.02203125 -24.9375 2.5625 C-24.38191406 2.10101563 -23.82632812 1.63953125 -23.25390625 1.1640625 C-16.04505584 -3.54192301 -7.71848698 -3.50735432 0 0 Z " fill="#000000" transform="translate(53.375,151.0625)"/>
<path d="M0 0 C1.11183151 -0.01921509 2.22366302 -0.03843018 3.3691864 -0.05822754 C4.56711319 -0.06672729 5.76503998 -0.07522705 6.99926758 -0.08398438 C8.23743729 -0.09538452 9.47560699 -0.10678467 10.751297 -0.11853027 C13.373063 -0.13742492 15.99487645 -0.15049613 18.61669922 -0.15820312 C21.29303611 -0.16696842 23.96808174 -0.19472928 26.64404297 -0.24023438 C30.51284697 -0.3013748 34.38003333 -0.32232226 38.24926758 -0.33398438 C39.43707321 -0.35867798 40.62487885 -0.38337158 41.84867859 -0.40881348 C49.63746988 -0.36735358 54.62206311 1.04536614 60.45629883 6.32226562 C65.7650744 12.00472974 65.99300381 17.32713111 65.92504883 24.95507812 C65.05646778 31.19438529 62.20925509 35.30865812 57.45629883 39.32226562 C50.97089788 43.75611144 44.81610811 43.90924064 37.14379883 43.85351562 C35.97550537 43.85734253 34.80721191 43.86116943 33.60351562 43.8651123 C31.1426507 43.8678245 28.6817566 43.86051213 26.22094727 43.84375 C22.4680108 43.82233246 18.7169887 43.8435774 14.96411133 43.86914062 C12.56566963 43.86649723 10.16722912 43.86137201 7.76879883 43.85351562 C6.65400146 43.86161255 5.5392041 43.86970947 4.390625 43.87805176 C-3.84158378 43.77963753 -9.40297265 42.39320018 -15.35620117 36.57226562 C-19.35291316 30.63429353 -21.7515599 24.61059497 -20.54370117 17.32226562 C-18.40241263 9.84050151 -14.39532741 5.22063211 -7.77885437 1.26794434 C-5.05711382 0.1163937 -2.95351507 0.04130087 0 0 Z " fill="#000000" transform="translate(190.543701171875,383.677734375)"/>
<path d="M0 0 C5.52013044 3.08039076 8.60528998 6.87836995 10.625 12.9375 C10.72794355 14.73067955 10.77349081 16.52739879 10.78613281 18.32348633 C10.79574036 19.42505569 10.8053479 20.52662506 10.81524658 21.66157532 C10.81949646 22.85220078 10.82374634 24.04282623 10.828125 25.26953125 C10.83382507 26.49403488 10.83952515 27.71853851 10.84539795 28.98014832 C10.85485113 31.57342667 10.86138319 34.16671705 10.86523438 36.76000977 C10.87493559 40.7236838 10.90595522 44.68683843 10.9375 48.65039062 C10.94403049 51.16926775 10.94928078 53.68814859 10.953125 56.20703125 C10.9654718 57.39158401 10.9778186 58.57613678 10.99053955 59.79658508 C10.97060765 67.17550085 10.27413655 71.75853614 5.4375 77.5625 C-0.58129451 82.64503758 -5.74114959 84.6576236 -13.69921875 84.31640625 C-20.54496991 83.34700791 -24.81290611 80.03599851 -29.1484375 74.81640625 C-31.74900066 70.83274103 -32.6265531 67.26394172 -32.66552734 62.53979492 C-32.67828705 61.4848735 -32.69104675 60.42995209 -32.70419312 59.34306335 C-32.70641876 58.21278214 -32.70864441 57.08250092 -32.7109375 55.91796875 C-32.7175943 54.74543045 -32.7242511 53.57289215 -32.73110962 52.36482239 C-32.74122608 49.88605313 -32.74592695 47.40725668 -32.74560547 44.9284668 C-32.74997214 41.14911647 -32.78628692 37.37094021 -32.82421875 33.59179688 C-32.83008847 31.17969148 -32.83405682 28.76758055 -32.8359375 26.35546875 C-32.85030853 25.23126022 -32.86467957 24.1070517 -32.87948608 22.94877625 C-32.83519947 15.28817135 -31.77702157 9.87988742 -26.62890625 3.9140625 C-26.07074219 3.46804687 -25.51257813 3.02203125 -24.9375 2.5625 C-24.38191406 2.10101563 -23.82632812 1.63953125 -23.25390625 1.1640625 C-16.04505584 -3.54192301 -7.71848698 -3.50735432 0 0 Z " fill="#000000" transform="translate(437.375,151.0625)"/>
</svg>
