<?xml version="1.0" encoding="UTF-8"?>
<svg version="1.1" xmlns="http://www.w3.org/2000/svg" width="512" height="512">
<path d="M0 0 C4.37320252 3.79730754 7.62726575 8.24316231 8.21307373 14.14759827 C8.3273236 16.80374288 8.38127745 19.45487714 8.4140625 22.11328125 C8.43342865 23.08283249 8.4527948 24.05238373 8.4727478 25.05131531 C8.53237436 28.13828828 8.5788614 31.22529888 8.625 34.3125 C8.66319534 36.40952118 8.70224798 38.50652694 8.7421875 40.60351562 C8.83806209 45.73555131 8.92215577 50.86766043 9 56 C9.50136475 55.4848584 10.00272949 54.9697168 10.51928711 54.43896484 C14.67781328 50.21522419 18.86956626 46.24496477 23.5625 42.625 C24.15836914 42.16295166 24.75423828 41.70090332 25.36816406 41.22485352 C71.37673216 5.99766658 128.66054655 -9.92405952 186.26220703 -2.39794922 C239.78361705 5.38160298 291.79371222 33.20167151 325.01049805 76.53857422 C326.35908465 78.34618502 327.68405404 80.16849945 329 82 C329.47501953 82.65774414 329.95003906 83.31548828 330.43945312 83.99316406 C352.18230118 114.45893337 365.35496594 148.91375194 370 186 C370.19722656 187.485 370.19722656 187.485 370.3984375 189 C376.3395833 244.23659876 358.88148965 300.89764351 324.3125 344.0625 C322.89320072 345.72405444 321.4551331 347.36973583 320 349 C319.57122559 349.48227051 319.14245117 349.96454102 318.70068359 350.46142578 C280.71759064 393.02566511 228.87999755 420.12127862 171.46337891 423.87548828 C116.04891149 426.67641775 59.96347927 410.18371948 18 373 C17.17886719 372.28714844 16.35773438 371.57429688 15.51171875 370.83984375 C-26.79419706 333.53431612 -53.1985886 280.75182403 -56.87109375 224.29882812 C-57.99386503 204.27607362 -57.99386503 204.27607362 -52.25 195.25 C-47.34291777 190.34291777 -42.09369169 188.20624611 -35.25 187.75 C-28.59425365 187.84915451 -22.71844869 190.28155131 -18 195 C-14.21156398 200.4778737 -12.94522261 205.15135546 -12.640625 211.70703125 C-10.64021321 248.94913463 -0.71872631 284.46830912 23 314 C23.4419873 314.55333008 23.88397461 315.10666016 24.33935547 315.67675781 C52.74841432 350.91326886 93.52556047 373.56904126 138.60107422 378.8190918 C171.38783527 381.29161265 202.40399147 376.58233048 232 362 C232.66225586 361.67773438 233.32451172 361.35546875 234.00683594 361.0234375 C272.53014577 342.07944106 302.26640915 307.55964401 316.7578125 267.26953125 C331.52454049 223.75865009 329.24323202 176.54696309 309.07519531 135.14941406 C303.67020399 124.34434057 297.64399212 114.39855211 290 105 C289.55285645 104.44602539 289.10571289 103.89205078 288.64501953 103.32128906 C259.99430678 68.05130763 219.59773566 47.08491243 174.65625 41.4140625 C127.33470932 36.52479017 83.83348067 52.11069388 47 81 C47.92748047 81.00410889 48.85496094 81.00821777 49.81054688 81.01245117 C53.28526242 81.03958382 56.75825816 81.08882446 60.23242188 81.15258789 C61.72970876 81.17564043 63.22715486 81.19013346 64.72460938 81.19555664 C80.88884274 81.26560165 80.88884274 81.26560165 87 87 C91.76095417 92.13681897 93.28987758 95.86205012 93.3125 102.875 C93.32925781 104.06867188 93.34601563 105.26234375 93.36328125 106.4921875 C92.7058067 112.84070516 89.8020878 116.94490363 85 121 C79.20282136 124.7360941 74.24370662 125.58550234 67.43798828 125.53344727 C66.51654022 125.54206284 65.59509216 125.55067841 64.64572144 125.55955505 C61.62029375 125.58213099 58.59579882 125.5754907 55.5703125 125.56640625 C53.45335619 125.57164607 51.33640223 125.57792386 49.2194519 125.58518982 C44.78958119 125.59557904 40.360032 125.59105447 35.93017578 125.57641602 C30.27219156 125.55924351 24.61522436 125.58271298 18.95735359 125.61790562 C14.58708045 125.63993948 10.21704831 125.63842339 5.84673691 125.6301403 C3.76167563 125.62932382 1.67659611 125.63612884 -0.40841293 125.65091133 C-22.01028819 125.7805846 -22.01028819 125.7805846 -29 120 C-32.89555275 115.82195248 -35.10922532 111.68228576 -35.15390015 105.93464661 C-35.16250061 105.10908264 -35.17110107 104.28351868 -35.17996216 103.43293762 C-35.18422211 102.5305687 -35.18848206 101.62819977 -35.19287109 100.69848633 C-35.20104858 99.7452951 -35.20922607 98.79210388 -35.21765137 97.81002808 C-35.2424941 94.65070218 -35.25901963 91.49142122 -35.2734375 88.33203125 C-35.27876118 87.252544 -35.28408485 86.17305676 -35.28956985 85.06085777 C-35.31629806 79.34583623 -35.33567303 73.6308365 -35.35009766 67.91577148 C-35.36673401 62.01879243 -35.4115048 56.12237347 -35.4624691 50.22560596 C-35.49616078 45.68647129 -35.50767729 41.14746918 -35.51332474 36.60822105 C-35.52003307 34.4349509 -35.53524415 32.26168933 -35.55921555 30.08854103 C-35.59090682 27.04139502 -35.59089741 23.99575453 -35.58349609 20.94848633 C-35.59990143 20.05623856 -35.61630676 19.16399078 -35.63320923 18.2447052 C-35.56393468 11.25216937 -33.35345388 6.54931589 -28.55721092 1.47294331 C-20.00845071 -6.23640298 -9.47585453 -5.41930142 0 0 Z " fill="#000000" transform="translate(99,46)"/>
</svg>
